<mxfile host="app.diagrams.net" modified="2022-11-18T06:17:24.309Z" agent="5.0 (Macintosh; Intel Mac OS X 10_15_7) AppleWebKit/605.1.15 (KHTML, like Gecko) Version/16.0 Safari/605.1.15" etag="8LGy48q7NrpJiHgKfRdH" version="20.5.3" type="github">
  <diagram id="rc35-oDVXO251KG7hpva" name="第 1 页">
    <mxGraphModel dx="1979" dy="1137" grid="1" gridSize="10" guides="1" tooltips="1" connect="1" arrows="1" fold="1" page="1" pageScale="1" pageWidth="827" pageHeight="1169" math="0" shadow="0">
      <root>
        <mxCell id="0" />
        <mxCell id="1" parent="0" />
        <mxCell id="Nr4s4P2bhIydLxVSbpMi-3" value="" style="edgeStyle=orthogonalEdgeStyle;rounded=0;orthogonalLoop=1;jettySize=auto;html=1;" edge="1" parent="1" source="Nr4s4P2bhIydLxVSbpMi-1" target="Nr4s4P2bhIydLxVSbpMi-2">
          <mxGeometry relative="1" as="geometry" />
        </mxCell>
        <mxCell id="Nr4s4P2bhIydLxVSbpMi-1" value=".java文件" style="rounded=0;whiteSpace=wrap;html=1;fillColor=#dae8fc;strokeColor=#6c8ebf;" vertex="1" parent="1">
          <mxGeometry x="90" y="150" width="120" height="60" as="geometry" />
        </mxCell>
        <mxCell id="Nr4s4P2bhIydLxVSbpMi-2" value=".javac文件" style="rounded=0;whiteSpace=wrap;html=1;fillColor=#dae8fc;strokeColor=#6c8ebf;" vertex="1" parent="1">
          <mxGeometry x="290" y="150" width="120" height="60" as="geometry" />
        </mxCell>
        <mxCell id="Nr4s4P2bhIydLxVSbpMi-4" value="编译" style="text;html=1;strokeColor=none;fillColor=none;align=center;verticalAlign=middle;whiteSpace=wrap;rounded=0;" vertex="1" parent="1">
          <mxGeometry x="220" y="150" width="60" height="30" as="geometry" />
        </mxCell>
      </root>
    </mxGraphModel>
  </diagram>
</mxfile>
